<svg xmlns="http://www.w3.org/2000/svg" version="1.1" xmlns:xlink="http://www.w3.org/1999/xlink" xmlns:svgjs="http://svgjs.com/svgjs" width="1920" height="1080" preserveAspectRatio="none" viewBox="0 0 1920 1080"><g mask="url(&quot;#SvgjsMask1009&quot;)" fill="none"><rect width="1920" height="1080" x="0" y="0" fill="rgba(52, 149, 95, 1)"></rect><path d="M2080 1080L0 1080 L0 886.57Q121.87 848.45, 160 970.32Q209.05 859.37, 320 908.42Q382.04 810.46, 480 872.5Q560.25 856.75, 576 937.01Q608.67 873.68, 672 906.35Q738.19 812.54, 832 878.72Q917.11 867.83, 928 952.94Q952.89 881.84, 1024 906.73Q1086.85 809.58, 1184 872.42Q1240.4 832.82, 1280 889.21Q1403.08 852.29, 1440 975.37Q1503.14 878.51, 1600 941.66Q1653.51 835.17, 1760 888.69Q1880.51 849.2, 1920 969.7Q2054.27 943.97, 2080 1078.24z" fill="rgba(247, 253, 255, 1)"></path></g><defs><mask id="SvgjsMask1009"><rect width="1920" height="1080" fill="#ffffff"></rect></mask></defs></svg>