<?xml version="1.0" encoding="UTF-8"?>
<!DOCTYPE svg PUBLIC "-//W3C//DTD SVG 1.1//EN" "http://www.w3.org/Graphics/SVG/1.1/DTD/svg11.dtd">
<!-- Creator: CorelDRAW -->
<svg xmlns="http://www.w3.org/2000/svg" xml:space="preserve" width="7.33333in" height="7.33333in" style="shape-rendering:geometricPrecision; text-rendering:geometricPrecision; image-rendering:optimizeQuality; fill-rule:evenodd; clip-rule:evenodd"
viewBox="0 0 7.33333 7.33333"
 xmlns:xlink="http://www.w3.org/1999/xlink">
 <defs>
  <style type="text/css">
   <![CDATA[
    .fil1 {fill:black}
    .fil0 {fill:black;fill-rule:nonzero}
   ]]>
  </style>
 </defs>
 <g id="Layer_x0020_1">
  <metadata id="CorelCorpID_0Corel-Layer"/>
  <path class="fil0" d="M2.79805 1.10667l1.69458 0c0.0542362,0 0.103484,0.0221339 0.139138,0.0577795 0.0356457,0.0356535 0.0577795,0.0849094 0.0577795,0.139142l0 1.14363c0,0.0441811 -0.0358189,0.08 -0.08,0.08l-1.92842 0c-0.0441811,0 -0.08,-0.0358189 -0.08,-0.08l0 -1.14363c0,-0.0542362 0.0221299,-0.103492 0.0577835,-0.139138 0.0356457,-0.0356535 0.0849016,-0.0577835 0.139138,-0.0577835zm0.200925 0.328839c-0.0441811,0 -0.08,0.0358189 -0.08,0.08 0,0.0441811 0.0358189,0.08 0.08,0.08l1.27139 0c0.0441811,0 0.08,-0.0358189 0.08,-0.08 0,-0.0441811 -0.0358189,-0.08 -0.08,-0.08l-1.27139 0zm0.0213307 0.301437c-0.0441811,0 -0.08,0.0358189 -0.08,0.08 0,0.0441811 0.0358189,0.08 0.08,0.08l1.2714 0c0.0441811,0 0.08,-0.0358189 0.08,-0.08 0,-0.0441811 -0.0358189,-0.08 -0.08,-0.08l-1.2714 0zm-0.0213307 0.301437c-0.0441811,0 -0.08,0.0358189 -0.08,0.08 0,0.0441811 0.0358189,0.08 0.08,0.08l1.27139 0c0.0441811,0 0.08,-0.0358189 0.08,-0.08 0,-0.0441811 -0.0358189,-0.08 -0.08,-0.08l-1.27139 0z"/>
  <path class="fil0" d="M4.65648 2.88789l0.955681 0c0.0441811,0 0.08,0.0358189 0.08,0.08l0 0.803831c0,0.0441811 -0.0358189,0.08 -0.08,0.08l-0.955681 0c-0.0441811,0 -0.08,-0.0358189 -0.08,-0.08l0 -0.803831c0,-0.0441811 0.0358189,-0.08 0.08,-0.08z"/>
  <path class="fil0" d="M3.18883 2.88789l0.955681 0c0.0441811,0 0.08,0.0358189 0.08,0.08l0 0.803831c0,0.0441811 -0.0358189,0.08 -0.08,0.08l-0.955681 0c-0.0441811,0 -0.08,-0.0358189 -0.08,-0.08l0 -0.803831c0,-0.0441811 0.0358189,-0.08 0.08,-0.08z"/>
  <path class="fil0" d="M1.72118 2.88789l0.955677 0c0.0441811,0 0.08,0.0358189 0.08,0.08l0 0.803831c0,0.0441811 -0.0358189,0.08 -0.08,0.08l-0.955677 0c-0.0441811,0 -0.08,-0.0358189 -0.08,-0.08l0 -0.803831c0,-0.0441811 0.0358189,-0.08 0.08,-0.08z"/>
  <path class="fil0" d="M4.65648 4.07536l0.955681 0c0.0441811,0 0.08,0.0358189 0.08,0.08l0 0.803835c0,0.0441811 -0.0358189,0.08 -0.08,0.08l-0.955681 0c-0.0441811,0 -0.08,-0.0358189 -0.08,-0.08l0 -0.803835c0,-0.0441811 0.0358189,-0.08 0.08,-0.08z"/>
  <path class="fil0" d="M3.18883 4.07536l0.955681 0c0.0441811,0 0.08,0.0358189 0.08,0.08l0 0.803835c0,0.0441811 -0.0358189,0.08 -0.08,0.08l-0.955681 0c-0.0441811,0 -0.08,-0.0358189 -0.08,-0.08l0 -0.803835c0,-0.0441811 0.0358189,-0.08 0.08,-0.08z"/>
  <path class="fil0" d="M1.72118 4.07536l0.955677 0c0.0441811,0 0.08,0.0358189 0.08,0.08l0 0.803835c0,0.0441811 -0.0358189,0.08 -0.08,0.08l-0.955677 0c-0.0441811,0 -0.08,-0.0358189 -0.08,-0.08l0 -0.803835c0,-0.0441811 0.0358189,-0.08 0.08,-0.08z"/>
  <path class="fil0" d="M4.65648 5.26283l0.955681 0c0.0441811,0 0.08,0.0358189 0.08,0.08l0 0.803831c0,0.0441811 -0.0358189,0.08 -0.08,0.08l-0.955681 0c-0.0441811,0 -0.08,-0.0358189 -0.08,-0.08l0 -0.803831c0,-0.0441811 0.0358189,-0.08 0.08,-0.08z"/>
  <path class="fil0" d="M3.18883 5.26283l0.955681 0c0.0441811,0 0.08,0.0358189 0.08,0.08l0 0.803831c0,0.0441811 -0.0358189,0.08 -0.08,0.08l-0.955681 0c-0.0441811,0 -0.08,-0.0358189 -0.08,-0.08l0 -0.803831c0,-0.0441811 0.0358189,-0.08 0.08,-0.08z"/>
  <path class="fil0" d="M1.72118 5.26283l0.955677 0c0.0441811,0 0.08,0.0358189 0.08,0.08l0 0.803831c0,0.0441811 -0.0358189,0.08 -0.08,0.08l-0.955677 0c-0.0441811,0 -0.08,-0.0358189 -0.08,-0.08l0 -0.803831c0,-0.0441811 0.0358189,-0.08 0.08,-0.08z"/>
  <path class="fil0" d="M3.74667 2.45635c0,-0.0441811 -0.0358189,-0.08 -0.08,-0.08 -0.0441811,0 -0.08,0.0358189 -0.08,0.08l0 0.511531c0,0.0441811 0.0358189,0.08 0.08,0.08 0.0441811,0 0.08,-0.0358189 0.08,-0.08l0 -0.511531z"/>
  <path class="fil0" d="M4.15304 3.23499c-0.0441811,0 -0.08,0.0358189 -0.08,0.08 0,0.0441811 0.0358189,0.08 0.08,0.08l0.477843 0c0.0441811,0 0.08,-0.0358189 0.08,-0.08 0,-0.0441811 -0.0358189,-0.08 -0.08,-0.08l-0.477843 0z"/>
  <path class="fil0" d="M4.15304 4.38593c-0.0441811,0 -0.08,0.0358189 -0.08,0.08 0,0.0441811 0.0358189,0.08 0.08,0.08l0.477843 0c0.0441811,0 0.08,-0.0358189 0.08,-0.08 0,-0.0441811 -0.0358189,-0.08 -0.08,-0.08l-0.477843 0z"/>
  <path class="fil0" d="M4.15304 5.53687c-0.0441811,0 -0.08,0.0358189 -0.08,0.08 0,0.0441811 0.0358189,0.08 0.08,0.08l0.477843 0c0.0441811,0 0.08,-0.0358189 0.08,-0.08 0,-0.0441811 -0.0358189,-0.08 -0.08,-0.08l-0.477843 0z"/>
  <path class="fil0" d="M2.68539 3.23499c-0.0441811,0 -0.08,0.0358189 -0.08,0.08 0,0.0441811 0.0358189,0.08 0.08,0.08l0.477839 0c0.0441811,0 0.08,-0.0358189 0.08,-0.08 0,-0.0441811 -0.0358189,-0.08 -0.08,-0.08l-0.477839 0z"/>
  <path class="fil0" d="M2.68539 4.38593c-0.0441811,0 -0.08,0.0358189 -0.08,0.08 0,0.0441811 0.0358189,0.08 0.08,0.08l0.477839 0c0.0441811,0 0.08,-0.0358189 0.08,-0.08 0,-0.0441811 -0.0358189,-0.08 -0.08,-0.08l-0.477839 0z"/>
  <path class="fil0" d="M2.68539 5.53687c-0.0441811,0 -0.08,0.0358189 -0.08,0.08 0,0.0441811 0.0358189,0.08 0.08,0.08l0.477839 0c0.0441811,0 0.08,-0.0358189 0.08,-0.08 0,-0.0441811 -0.0358189,-0.08 -0.08,-0.08l-0.477839 0z"/>
  <path class="fil1" d="M-0 0l7.33333 0 0 7.33333 -7.33333 0 0 -7.33333zm0.479996 0.479996l6.37334 0 0 6.37334 -6.37334 0 0 -6.37334z"/>
 </g>
</svg>
