<?xml version="1.0" standalone="no"?>
<!DOCTYPE svg PUBLIC "-//W3C//DTD SVG 20010904//EN"
 "http://www.w3.org/TR/2001/REC-SVG-20010904/DTD/svg10.dtd">
<svg version="1.0" xmlns="http://www.w3.org/2000/svg"
 width="794.000000pt" height="794.000000pt" viewBox="0 0 794.000000 794.000000"
 preserveAspectRatio="xMidYMid meet">
<metadata>
Created by potrace 1.16, written by Peter Selinger 2001-2019
</metadata>
<g transform="translate(0.000000,794.000000) scale(0.100000,-0.100000)"
fill="#000000" stroke="none">
<path d="M3755 7654 c-187 -157 -684 -575 -1105 -929 l-765 -643 -267 -463
c-307 -535 -708 -1232 -842 -1464 -51 -88 -191 -331 -311 -540 -120 -209 -274
-476 -342 -593 -68 -117 -123 -217 -123 -223 0 -5 327 -9 858 -9 l858 0 242
518 c272 585 479 1027 872 1872 150 322 334 718 410 880 184 394 587 1260 744
1596 69 150 126 275 126 278 0 3 -3 6 -7 6 -5 -1 -161 -129 -348 -286z"/>
<path d="M4345 7518 c-3 -7 -155 -427 -339 -933 -184 -506 -393 -1083 -465
-1283 l-131 -364 294 -351 c332 -397 779 -931 966 -1153 430 -511 542 -646
539 -648 -2 -2 -744 -134 -1649 -294 -905 -161 -1692 -300 -1750 -311 -105
-19 -104 -19 2773 -20 1582 -1 2877 1 2877 3 0 3 -98 175 -218 383 -120 208
-323 560 -452 783 -128 223 -333 578 -455 790 -122 212 -281 486 -352 610
-133 231 -766 1327 -1120 1940 -402 697 -498 860 -506 860 -4 0 -10 -6 -12
-12z"/>
<path d="M775 2173 c-4 -10 -22 -61 -41 -113 -19 -52 -38 -104 -43 -115 -5
-11 -16 -36 -25 -57 -9 -20 -16 -41 -16 -47 0 -6 -4 -19 -9 -29 -5 -9 -60
-150 -121 -312 -61 -162 -125 -328 -141 -369 -16 -40 -29 -77 -29 -82 0 -5 -8
-28 -19 -52 -10 -23 -60 -152 -110 -287 -51 -135 -97 -253 -102 -262 -5 -10
-9 -23 -9 -29 0 -6 -6 -25 -14 -42 -12 -28 -33 -81 -82 -207 -7 -19 -13 -49
-14 -67 l0 -31 128 -1 c144 -2 144 -2 167 71 8 24 37 108 65 188 29 80 66 187
84 237 l31 93 443 0 c413 0 443 -1 448 -17 3 -10 12 -34 19 -53 8 -19 37 -98
65 -175 29 -77 58 -154 66 -172 8 -17 14 -35 14 -40 0 -4 12 -36 27 -71 l26
-63 134 2 c73 0 136 5 139 11 6 9 -4 39 -32 105 -8 17 -14 37 -14 45 0 8 -4
18 -8 24 -9 9 -41 87 -47 114 -2 8 -18 51 -35 95 -18 44 -38 98 -46 120 -8 22
-24 59 -34 82 -11 24 -20 48 -20 54 0 5 -11 35 -25 65 -14 30 -25 59 -25 63 0
5 -30 85 -66 178 -79 200 -110 281 -134 348 -19 53 -55 147 -69 180 -5 11 -16
40 -26 65 -10 25 -21 54 -25 65 -5 11 -21 54 -36 95 -15 41 -34 91 -42 110 -9
19 -16 40 -18 45 -1 6 -11 32 -23 57 -11 26 -21 51 -21 55 0 4 -12 38 -27 75
l-28 68 -136 0 c-121 0 -138 -2 -144 -17z m155 -321 c0 -19 18 -73 59 -182 16
-41 43 -115 61 -165 17 -49 35 -99 40 -110 4 -11 20 -54 35 -95 14 -41 30 -84
35 -95 4 -11 22 -60 40 -110 36 -100 48 -132 61 -157 5 -10 9 -22 9 -28 0 -7
-120 -10 -350 -10 -192 0 -350 4 -350 9 0 7 80 228 195 541 102 278 126 343
136 384 11 43 29 54 29 18z"/>
<path d="M6713 1625 c-255 -39 -447 -208 -543 -477 -41 -113 -54 -225 -47
-388 7 -154 30 -256 83 -368 41 -85 50 -98 131 -179 119 -119 270 -173 482
-173 188 0 300 26 444 103 l79 42 -4 114 c-2 64 -8 116 -14 118 -5 2 -19 -5
-30 -14 -29 -25 -50 -38 -123 -73 -203 -97 -445 -94 -592 7 -107 75 -184 215
-196 359 -5 61 -5 61 23 67 16 3 246 3 512 0 l482 -6 0 233 c0 230 0 233 -27
294 -80 183 -230 302 -432 340 -96 18 -117 19 -228 1z m258 -250 c64 -32 120
-90 155 -161 27 -55 53 -151 54 -196 l0 -28 -400 0 c-220 0 -400 3 -400 6 0 3
12 40 26 82 60 172 178 292 318 322 75 16 188 5 247 -25z"/>
<path d="M5710 1603 c-99 -34 -198 -129 -252 -243 -16 -35 -16 -34 -17 98 l-1
132 -130 0 -130 0 2 -757 3 -758 123 -3 c92 -2 123 1 127 10 2 7 6 220 8 473
3 442 4 462 25 524 48 138 105 218 190 269 64 37 184 43 260 13 29 -12 55 -21
57 -21 3 0 5 58 5 129 l0 129 -31 11 c-46 16 -186 13 -239 -6z"/>
<path d="M2020 1486 l0 -103 38 -7 c20 -3 196 -6 390 -6 193 0 352 -4 352 -8
0 -5 -15 -29 -34 -53 -47 -62 -167 -227 -196 -269 -13 -19 -27 -37 -30 -40 -4
-3 -25 -32 -48 -65 -36 -53 -137 -191 -311 -430 -29 -38 -76 -104 -106 -145
-29 -41 -74 -102 -99 -136 -39 -52 -46 -68 -46 -108 l0 -46 625 0 625 0 0 116
0 116 -424 -4 c-233 -1 -428 0 -431 4 -4 4 4 22 19 40 14 18 30 38 35 44 5 6
20 28 35 50 14 21 43 62 63 90 21 28 116 161 212 295 96 134 178 246 181 249
3 3 22 27 41 55 41 60 30 45 137 190 123 167 142 199 142 240 l0 35 -585 0
-585 0 0 -104z"/>
<path d="M3451 1083 c1 -535 5 -596 48 -722 42 -123 111 -206 216 -260 88 -46
155 -61 278 -61 90 0 121 4 185 26 106 35 191 101 256 198 l26 39 0 -117 0
-116 125 0 125 0 0 760 0 760 -124 0 -125 0 -3 -92 c-2 -51 -5 -273 -6 -492
-3 -394 -4 -401 -28 -470 -28 -82 -42 -104 -103 -169 -29 -31 -69 -60 -109
-78 -55 -25 -74 -29 -155 -29 -84 0 -98 3 -157 33 -77 39 -127 99 -162 196
-23 66 -23 70 -26 584 l-3 517 -130 0 -129 0 1 -507z"/>
</g>
</svg>
