<?xml version="1.0" standalone="no"?>
<!DOCTYPE svg PUBLIC "-//W3C//DTD SVG 20010904//EN"
 "http://www.w3.org/TR/2001/REC-SVG-20010904/DTD/svg10.dtd">
<svg version="1.0" xmlns="http://www.w3.org/2000/svg"
 width="1083.000000pt" height="724.000000pt" viewBox="0 0 1083.000000 724.000000"
 preserveAspectRatio="xMidYMid meet">

<g transform="translate(0.000000,724.000000) scale(0.100000,-0.100000)"
fill="#000000" stroke="none">
<path d="M8800 5230 c0 -522 -2 -950 -5 -950 -6 0 -569 84 -840 125 -93 14
-215 32 -270 40 -55 8 -190 28 -299 45 -110 16 -200 29 -202 27 -1 -1 361
-124 805 -273 l808 -271 279 116 279 116 3 878 c2 703 0 877 -11 877 -7 0
-130 50 -274 110 -144 61 -265 110 -268 110 -3 0 -5 -427 -5 -950z"/>
<path d="M3190 6113 c0 -8 -1014 -896 -1046 -915 -7 -5 -122 76 -289 201
l-278 208 -88 -36 -89 -36 0 -486 0 -485 89 -36 89 -35 277 208 c236 177 280
207 294 196 53 -42 1019 -882 1032 -897 9 -11 19 -16 23 -13 3 4 104 43 224
88 l217 82 3 896 c2 762 0 897 -12 897 -18 0 -417 150 -433 162 -8 7 -13 7
-13 1z m-104 -1450 c-5 -5 -556 379 -555 387 0 3 125 92 277 198 l277 193 3
-387 c1 -213 0 -389 -2 -391z m-1303 492 c69 -55 125 -103 124 -107 -2 -7
-264 -218 -272 -218 -3 0 -5 99 -5 220 0 183 2 220 13 213 8 -4 71 -53 140
-108z"/>
<path d="M8055 5702 c-89 -86 -204 -199 -257 -250 l-96 -94 -153 115 -152 115
-60 -20 -59 -21 153 -153 154 -154 -154 -154 -153 -153 60 -21 59 -20 149 114
c82 62 151 114 154 114 6 0 198 -185 385 -370 l130 -129 150 64 150 64 0 493
0 492 -150 63 c-82 35 -150 63 -150 63 0 0 -72 -71 -160 -158z m165 -463 c0
-227 -2 -260 -15 -255 -16 6 -286 206 -322 239 l-22 20 127 95 c70 52 145 110
167 128 22 19 46 34 53 34 9 0 12 -59 12 -261z"/>
<path d="M6030 5370 c0 -126 -3 -230 -7 -230 -3 0 -30 14 -60 30 -29 17 -61
30 -72 30 -10 0 -81 -35 -157 -78 l-139 -77 -3 -172 -2 -171 137 -75 c76 -42
145 -78 153 -82 9 -3 77 29 163 76 l147 81 0 403 c0 310 -3 405 -12 412 -7 5
-43 26 -80 47 l-68 37 0 -231z m-63 -385 l63 -36 0 -77 0 -77 -71 -38 -70 -38
-67 38 -67 39 -3 76 -3 76 63 36 c35 20 69 36 77 36 8 0 43 -16 78 -35z"/>
<path d="M4350 5123 c-74 -41 -138 -81 -142 -87 -13 -19 -10 -436 4 -436 15 0
132 66 146 83 7 8 13 66 14 142 l3 129 67 35 67 36 68 -37 68 -37 3 -135 3
-135 69 -41 c37 -22 73 -40 79 -40 8 0 11 66 9 222 l-3 223 -140 77 c-77 43
-149 78 -160 78 -11 -1 -81 -35 -155 -77z"/>
<path d="M6395 5121 l-140 -78 -3 -166 -2 -165 27 -19 c16 -11 84 -50 152 -88
l124 -68 74 39 c45 24 72 45 71 53 -2 8 -65 48 -140 89 l-138 76 0 80 0 81 63
33 c35 17 68 32 74 32 6 0 37 -15 69 -33 l59 -33 3 -67 c2 -44 7 -67 15 -67 7
0 41 17 77 38 l65 38 3 75 3 75 -139 77 c-77 42 -148 77 -158 77 -11 0 -82
-36 -159 -79z"/>
<path d="M5200 5185 c0 -4 60 -106 133 -228 l132 -221 3 144 c1 79 1 149 -2
156 -2 6 -40 31 -83 54 -43 24 -102 56 -130 72 -29 17 -53 27 -53 23z"/>
<path d="M4872 4857 l3 -159 134 -74 c74 -41 135 -73 137 -72 1 2 -61 106
-137 233 l-140 230 3 -158z"/>
<path d="M6533 4917 c-31 -14 -32 -71 -2 -88 34 -18 69 6 69 46 0 39 -32 58
-67 42z"/>
<path d="M7850 2945 c-250 -90 -458 -165 -462 -167 -9 -4 130 -1220 140 -1230
4 -4 182 -104 396 -223 l389 -215 391 216 c215 119 392 217 393 219 9 6 143
1229 136 1235 -8 7 -916 331 -924 329 -2 0 -209 -74 -459 -164z m749 -702
c156 -351 286 -644 288 -650 4 -10 -21 -13 -104 -13 l-109 0 -58 145 -58 145
-250 -2 -250 -3 -56 -140 -57 -140 -109 -3 c-101 -2 -108 -1 -102 15 23 60
572 1283 576 1283 3 0 133 -287 289 -637z"/>
<path d="M8224 2255 l-82 -195 168 0 168 0 -82 195 c-44 107 -83 195 -86 195
-3 0 -42 -88 -86 -195z"/>
<path d="M1400 2450 l0 -110 105 0 105 0 0 110 0 110 -105 0 -105 0 0 -110z"/>
<path d="M3396 2465 c-8 -9 -18 -31 -22 -50 -3 -20 -12 -35 -20 -35 -8 0 -14
-7 -14 -15 0 -8 7 -15 15 -15 12 0 15 -16 15 -80 0 -73 2 -80 20 -80 18 0 20
7 20 80 l0 80 40 0 40 0 0 -59 c0 -33 3 -67 6 -76 8 -20 48 -37 69 -29 23 9
18 32 -7 36 -21 3 -23 9 -26 66 -3 61 -2 62 23 62 16 0 25 6 25 15 0 9 -9 15
-25 15 -21 0 -25 5 -25 31 0 24 -3 30 -16 25 -9 -3 -18 -6 -20 -6 -2 0 -4 -11
-4 -25 0 -22 -4 -25 -40 -25 -35 0 -40 3 -40 23 0 28 17 47 42 47 10 0 18 7
18 15 0 20 -54 20 -74 0z"/>
<path d="M4240 2030 l0 -450 345 0 345 0 0 -75 0 -75 290 0 290 0 0 75 0 75
633 2 632 3 3 448 2 447 -1270 0 -1270 0 0 -450z m690 0 l0 -290 -55 0 -55 0
0 210 0 210 -80 0 -80 0 0 -210 0 -210 -130 0 -130 0 0 290 0 290 265 0 265 0
0 -290z m680 0 l0 -290 -130 0 -130 0 0 -80 0 -80 -135 0 -135 0 0 370 0 370
265 0 265 0 0 -290z m1010 0 l0 -290 -55 0 -55 0 0 210 0 210 -80 0 -80 0 0
-210 0 -210 -80 0 -80 0 0 210 0 210 -75 0 -75 0 0 -210 0 -210 -135 0 -135 0
0 290 0 290 425 0 425 0 0 -290z"/>
<path d="M5350 2030 l0 -130 80 0 80 0 0 130 0 130 -80 0 -80 0 0 -130z"/>
<path d="M2361 2460 c-14 -8 -8 -40 7 -40 5 0 15 6 21 14 15 17 -8 39 -28 26z"/>
<path d="M2010 2326 c0 -114 2 -136 15 -136 12 0 15 18 15 105 0 58 3 105 8
105 4 0 26 -46 49 -103 22 -56 48 -103 56 -105 10 -2 28 30 58 105 l44 108 3
-107 c2 -100 4 -108 22 -108 19 0 20 7 20 136 l0 135 -31 -3 c-29 -3 -33 -9
-71 -101 -22 -54 -43 -95 -47 -92 -3 4 -22 48 -42 98 -34 86 -39 92 -68 95
l-31 3 0 -135z"/>
<path d="M2350 2285 c0 -88 1 -95 20 -95 19 0 20 7 20 95 0 88 -1 95 -20 95
-19 0 -20 -7 -20 -95z"/>
<path d="M2479 2367 c-42 -32 -52 -108 -19 -149 21 -27 63 -40 99 -31 25 6 29
35 4 32 -56 -5 -83 16 -83 65 0 41 26 66 68 66 22 0 32 5 32 15 0 19 -77 20
-101 2z"/>
<path d="M2620 2285 c0 -88 1 -95 20 -95 18 0 20 7 20 58 0 64 19 102 51 102
10 0 19 7 19 15 0 20 -29 19 -52 -2 -17 -15 -18 -15 -18 0 0 10 -8 17 -20 17
-19 0 -20 -7 -20 -95z"/>
<path d="M2783 2365 c-26 -18 -43 -71 -36 -108 16 -81 147 -96 182 -20 22 47
3 122 -34 137 -30 11 -90 6 -112 -9z m101 -31 c19 -19 21 -74 3 -98 -16 -22
-63 -24 -84 -3 -18 18 -20 82 -3 102 16 20 64 19 84 -1z"/>
<path d="M2986 2357 c-22 -33 -9 -65 35 -88 22 -11 39 -24 39 -29 0 -18 -38
-30 -64 -20 -22 8 -26 7 -26 -9 0 -38 91 -34 116 5 20 29 7 54 -41 83 -19 11
-35 25 -35 30 0 18 33 29 57 20 19 -7 23 -5 23 11 0 17 -7 20 -45 20 -35 0
-48 -5 -59 -23z"/>
<path d="M3169 2367 c-63 -48 -46 -156 27 -176 45 -12 96 6 114 40 20 36 14
98 -11 125 -17 19 -33 24 -68 24 -25 0 -53 -6 -62 -13z m101 -32 c13 -16 16
-77 5 -95 -19 -30 -76 -28 -97 4 -13 20 -8 69 9 88 19 22 66 24 83 3z"/>
<path d="M1904 1939 c-51 -15 -84 -55 -84 -104 0 -52 26 -82 100 -120 95 -48
122 -93 80 -135 -24 -24 -110 -28 -152 -6 -27 15 -28 14 -28 -14 0 -25 5 -31
38 -39 115 -32 212 17 212 108 0 39 -36 80 -102 115 -29 16 -63 38 -75 49 -30
27 -30 71 -1 91 25 18 94 21 132 6 24 -9 26 -7 26 19 0 25 -4 29 -37 35 -48 7
-70 6 -109 -5z"/>
<path d="M1549 1913 c-6 -15 -39 -102 -74 -193 -35 -91 -67 -173 -71 -183 -6
-16 -2 -18 22 -15 24 3 31 11 49 58 l21 55 89 0 89 0 21 -55 c17 -46 25 -56
48 -58 15 -2 27 -2 27 0 0 2 -35 95 -79 208 -73 190 -80 205 -105 208 -21 3
-28 -2 -37 -25z m68 -231 c-20 -2 -53 -2 -71 0 l-33 3 35 98 35 98 36 -98 36
-98 -38 -3z"/>
<path d="M2160 1730 l0 -210 25 0 c25 0 25 1 25 80 l0 80 50 0 c95 0 150 49
150 134 0 92 -47 126 -175 126 l-75 0 0 -210z m135 160 c48 -11 65 -32 65 -80
0 -51 -34 -81 -100 -88 l-50 -5 0 92 c0 102 -1 101 85 81z"/>
<path d="M2580 1731 l0 -211 25 0 26 0 -3 175 c-2 96 -2 175 -2 175 1 0 53
-79 115 -175 109 -167 115 -175 147 -175 l32 0 0 210 0 210 -25 0 -25 0 -2
-176 -3 -176 -111 173 c-102 160 -113 174 -142 177 l-32 3 0 -210z"/>
<path d="M3030 1730 l0 -210 110 0 c103 0 110 1 110 20 0 18 -7 20 -85 20
l-85 0 0 75 0 75 75 0 c68 0 75 2 75 20 0 18 -7 20 -75 20 l-75 0 0 75 0 75
80 0 c73 0 80 2 80 20 0 19 -7 20 -105 20 l-105 0 0 -210z"/>
<path d="M3290 1920 c0 -18 7 -20 60 -20 l60 0 0 -190 0 -190 25 0 25 0 2 188
3 187 58 3 c49 3 57 6 57 22 0 19 -8 20 -145 20 -138 0 -145 -1 -145 -20z"/>
<path d="M2429 1559 c-9 -17 -8 -25 4 -37 29 -28 73 12 47 43 -17 21 -37 19
-51 -6z"/>
</g>
</svg>
