<svg xmlns="http://www.w3.org/2000/svg" version="1.1" xmlns:xlink="http://www.w3.org/1999/xlink" xmlns:svgjs="http://svgjs.com/svgjs" width="1920" height="1080" preserveAspectRatio="none" viewBox="0 0 1920 1080"><g mask="url(&quot;#SvgjsMask1003&quot;)" fill="none"><rect width="1920" height="1080" x="0" y="0" fill="rgba(255, 255, 255, 1)"></rect><path d="M2016 1080L0 1080 L0 1036.06Q62.13 1002.19, 96 1064.32Q178.02 1050.34, 192 1132.36Q217.82 998.18, 352 1024Q448.49 960.49, 512 1056.98Q576.41 1025.39, 608 1089.8Q708.14 1029.94, 768 1130.09Q794.73 996.82, 928 1023.55Q912.93 912.48, 1024 897.42Q1162.29 875.71, 1184 1014Q1313.73 983.73, 1344 1113.46Q1397.11 1006.57, 1504 1059.68Q1538.94 998.63, 1600 1033.57Q1702.42 975.99, 1760 1078.42Q1830.55 1052.97, 1856 1123.52Q1864.87 972.39, 2016 981.26z" fill="rgba(247, 253, 255, 1)"></path></g><defs><mask id="SvgjsMask1003"><rect width="1920" height="1080" fill="#ffffff"></rect></mask></defs></svg>