<svg xmlns="http://www.w3.org/2000/svg" version="1.1" xmlns:xlink="http://www.w3.org/1999/xlink" xmlns:svgjs="http://svgjs.com/svgjs" width="1920" height="1080" preserveAspectRatio="none" viewBox="0 0 1920 1080"><g mask="url(&quot;#SvgjsMask1006&quot;)" fill="none"><rect width="1920" height="1080" x="0" y="0" fill="rgba(255, 255, 255, 1)"></rect><path d="M5.27 959.8L78.88 1002.3L78.88 1087.3L5.27 1129.8L-68.34 1087.3L-68.34 1002.3zM226.11 832.3L299.73 874.8L299.73 959.8L226.11 1002.3L152.5 959.8L152.5 874.8zM299.73 194.8L373.34 237.3L373.34 322.3L299.73 364.8L226.11 322.3L226.11 237.3zM299.73 704.8L373.34 747.3L373.34 832.3L299.73 874.8L226.11 832.3L226.11 747.3zM446.96 -60.2L520.57 -17.7L520.57 67.3L446.96 109.8L373.34 67.3L373.34 -17.7zM594.18 449.8L667.8 492.3L667.8 577.3L594.18 619.8L520.57 577.3L520.57 492.3zM667.8 577.3L741.41 619.8L741.41 704.8L667.8 747.3L594.18 704.8L594.18 619.8zM815.03 832.3L888.64 874.8L888.64 959.8L815.03 1002.3L741.41 959.8L741.41 874.8zM888.64 -60.2L962.26 -17.7L962.26 67.3L888.64 109.8L815.03 67.3L815.03 -17.7zM888.64 194.8L962.26 237.3L962.26 322.3L888.64 364.8L815.03 322.3L815.03 237.3zM962.26 832.3L1035.87 874.8L1035.87 959.8L962.26 1002.3L888.64 959.8L888.64 874.8zM1035.87 704.8L1109.48 747.3L1109.48 832.3L1035.87 874.8L962.26 832.3L962.26 747.3zM1256.71 67.3L1330.33 109.8L1330.33 194.8L1256.71 237.3L1183.1 194.8L1183.1 109.8zM1330.33 -60.2L1403.94 -17.7L1403.94 67.3L1330.33 109.8L1256.71 67.3L1256.71 -17.7zM1330.33 449.8L1403.94 492.3L1403.94 577.3L1330.33 619.8L1256.71 577.3L1256.71 492.3zM1403.94 577.3L1477.56 619.8L1477.56 704.8L1403.94 747.3L1330.33 704.8L1330.33 619.8zM1551.17 577.3L1624.78 619.8L1624.78 704.8L1551.17 747.3L1477.55 704.8L1477.55 619.8zM1698.4 322.3L1772.01 364.8L1772.01 449.8L1698.4 492.3L1624.78 449.8L1624.78 364.8zM1698.4 577.3L1772.01 619.8L1772.01 704.8L1698.4 747.3L1624.78 704.8L1624.78 619.8zM1772.01 449.8L1845.63 492.3L1845.63 577.3L1772.01 619.8L1698.4 577.3L1698.4 492.3zM1845.63 577.3L1919.24 619.8L1919.24 704.8L1845.63 747.3L1772.01 704.8L1772.01 619.8zM1919.24 -60.2L1992.85 -17.7L1992.85 67.3L1919.24 109.8L1845.63 67.3L1845.63 -17.7zM1919.24 449.8L1992.85 492.3L1992.85 577.3L1919.24 619.8L1845.63 577.3L1845.63 492.3z" stroke="rgba(6, 161, 216, 1)" stroke-width="2"></path><path d="M-3.23 959.8 a8.5 8.5 0 1 0 17 0 a8.5 8.5 0 1 0 -17 0zM70.38 1002.3 a8.5 8.5 0 1 0 17 0 a8.5 8.5 0 1 0 -17 0zM70.38 1087.3 a8.5 8.5 0 1 0 17 0 a8.5 8.5 0 1 0 -17 0zM-3.23 1129.8 a8.5 8.5 0 1 0 17 0 a8.5 8.5 0 1 0 -17 0zM-76.84 1087.3 a8.5 8.5 0 1 0 17 0 a8.5 8.5 0 1 0 -17 0zM-76.84 1002.3 a8.5 8.5 0 1 0 17 0 a8.5 8.5 0 1 0 -17 0zM217.61 832.3 a8.5 8.5 0 1 0 17 0 a8.5 8.5 0 1 0 -17 0zM291.23 874.8 a8.5 8.5 0 1 0 17 0 a8.5 8.5 0 1 0 -17 0zM291.23 959.8 a8.5 8.5 0 1 0 17 0 a8.5 8.5 0 1 0 -17 0zM217.61 1002.3 a8.5 8.5 0 1 0 17 0 a8.5 8.5 0 1 0 -17 0zM144 959.8 a8.5 8.5 0 1 0 17 0 a8.5 8.5 0 1 0 -17 0zM144 874.8 a8.5 8.5 0 1 0 17 0 a8.5 8.5 0 1 0 -17 0zM291.23 194.8 a8.5 8.5 0 1 0 17 0 a8.5 8.5 0 1 0 -17 0zM364.84 237.3 a8.5 8.5 0 1 0 17 0 a8.5 8.5 0 1 0 -17 0zM364.84 322.3 a8.5 8.5 0 1 0 17 0 a8.5 8.5 0 1 0 -17 0zM291.23 364.8 a8.5 8.5 0 1 0 17 0 a8.5 8.5 0 1 0 -17 0zM217.61 322.3 a8.5 8.5 0 1 0 17 0 a8.5 8.5 0 1 0 -17 0zM217.61 237.3 a8.5 8.5 0 1 0 17 0 a8.5 8.5 0 1 0 -17 0zM291.23 704.8 a8.5 8.5 0 1 0 17 0 a8.5 8.5 0 1 0 -17 0zM364.84 747.3 a8.5 8.5 0 1 0 17 0 a8.5 8.5 0 1 0 -17 0zM364.84 832.3 a8.5 8.5 0 1 0 17 0 a8.5 8.5 0 1 0 -17 0zM217.61 747.3 a8.5 8.5 0 1 0 17 0 a8.5 8.5 0 1 0 -17 0zM438.46 -60.2 a8.5 8.5 0 1 0 17 0 a8.5 8.5 0 1 0 -17 0zM512.07 -17.7 a8.5 8.5 0 1 0 17 0 a8.5 8.5 0 1 0 -17 0zM512.07 67.3 a8.5 8.5 0 1 0 17 0 a8.5 8.5 0 1 0 -17 0zM438.46 109.8 a8.5 8.5 0 1 0 17 0 a8.5 8.5 0 1 0 -17 0zM364.84 67.3 a8.5 8.5 0 1 0 17 0 a8.5 8.5 0 1 0 -17 0zM364.84 -17.7 a8.5 8.5 0 1 0 17 0 a8.5 8.5 0 1 0 -17 0zM585.68 449.8 a8.5 8.5 0 1 0 17 0 a8.5 8.5 0 1 0 -17 0zM659.3 492.3 a8.5 8.5 0 1 0 17 0 a8.5 8.5 0 1 0 -17 0zM659.3 577.3 a8.5 8.5 0 1 0 17 0 a8.5 8.5 0 1 0 -17 0zM585.68 619.8 a8.5 8.5 0 1 0 17 0 a8.5 8.5 0 1 0 -17 0zM512.07 577.3 a8.5 8.5 0 1 0 17 0 a8.5 8.5 0 1 0 -17 0zM512.07 492.3 a8.5 8.5 0 1 0 17 0 a8.5 8.5 0 1 0 -17 0zM732.91 619.8 a8.5 8.5 0 1 0 17 0 a8.5 8.5 0 1 0 -17 0zM732.91 704.8 a8.5 8.5 0 1 0 17 0 a8.5 8.5 0 1 0 -17 0zM659.3 747.3 a8.5 8.5 0 1 0 17 0 a8.5 8.5 0 1 0 -17 0zM585.68 704.8 a8.5 8.5 0 1 0 17 0 a8.5 8.5 0 1 0 -17 0zM806.53 832.3 a8.5 8.5 0 1 0 17 0 a8.5 8.5 0 1 0 -17 0zM880.14 874.8 a8.5 8.5 0 1 0 17 0 a8.5 8.5 0 1 0 -17 0zM880.14 959.8 a8.5 8.5 0 1 0 17 0 a8.5 8.5 0 1 0 -17 0zM806.53 1002.3 a8.5 8.5 0 1 0 17 0 a8.5 8.5 0 1 0 -17 0zM732.91 959.8 a8.5 8.5 0 1 0 17 0 a8.5 8.5 0 1 0 -17 0zM732.91 874.8 a8.5 8.5 0 1 0 17 0 a8.5 8.5 0 1 0 -17 0zM880.14 -60.2 a8.5 8.5 0 1 0 17 0 a8.5 8.5 0 1 0 -17 0zM953.76 -17.7 a8.5 8.5 0 1 0 17 0 a8.5 8.5 0 1 0 -17 0zM953.76 67.3 a8.5 8.5 0 1 0 17 0 a8.5 8.5 0 1 0 -17 0zM880.14 109.8 a8.5 8.5 0 1 0 17 0 a8.5 8.5 0 1 0 -17 0zM806.53 67.3 a8.5 8.5 0 1 0 17 0 a8.5 8.5 0 1 0 -17 0zM806.53 -17.7 a8.5 8.5 0 1 0 17 0 a8.5 8.5 0 1 0 -17 0zM880.14 194.8 a8.5 8.5 0 1 0 17 0 a8.5 8.5 0 1 0 -17 0zM953.76 237.3 a8.5 8.5 0 1 0 17 0 a8.5 8.5 0 1 0 -17 0zM953.76 322.3 a8.5 8.5 0 1 0 17 0 a8.5 8.5 0 1 0 -17 0zM880.14 364.8 a8.5 8.5 0 1 0 17 0 a8.5 8.5 0 1 0 -17 0zM806.53 322.3 a8.5 8.5 0 1 0 17 0 a8.5 8.5 0 1 0 -17 0zM806.53 237.3 a8.5 8.5 0 1 0 17 0 a8.5 8.5 0 1 0 -17 0zM953.76 832.3 a8.5 8.5 0 1 0 17 0 a8.5 8.5 0 1 0 -17 0zM1027.37 874.8 a8.5 8.5 0 1 0 17 0 a8.5 8.5 0 1 0 -17 0zM1027.37 959.8 a8.5 8.5 0 1 0 17 0 a8.5 8.5 0 1 0 -17 0zM953.76 1002.3 a8.5 8.5 0 1 0 17 0 a8.5 8.5 0 1 0 -17 0zM1027.37 704.8 a8.5 8.5 0 1 0 17 0 a8.5 8.5 0 1 0 -17 0zM1100.98 747.3 a8.5 8.5 0 1 0 17 0 a8.5 8.5 0 1 0 -17 0zM1100.98 832.3 a8.5 8.5 0 1 0 17 0 a8.5 8.5 0 1 0 -17 0zM953.76 747.3 a8.5 8.5 0 1 0 17 0 a8.5 8.5 0 1 0 -17 0zM1248.21 67.3 a8.5 8.5 0 1 0 17 0 a8.5 8.5 0 1 0 -17 0zM1321.83 109.8 a8.5 8.5 0 1 0 17 0 a8.5 8.5 0 1 0 -17 0zM1321.83 194.8 a8.5 8.5 0 1 0 17 0 a8.5 8.5 0 1 0 -17 0zM1248.21 237.3 a8.5 8.5 0 1 0 17 0 a8.5 8.5 0 1 0 -17 0zM1174.6 194.8 a8.5 8.5 0 1 0 17 0 a8.5 8.5 0 1 0 -17 0zM1174.6 109.8 a8.5 8.5 0 1 0 17 0 a8.5 8.5 0 1 0 -17 0zM1321.83 -60.2 a8.5 8.5 0 1 0 17 0 a8.5 8.5 0 1 0 -17 0zM1395.44 -17.7 a8.5 8.5 0 1 0 17 0 a8.5 8.5 0 1 0 -17 0zM1395.44 67.3 a8.5 8.5 0 1 0 17 0 a8.5 8.5 0 1 0 -17 0zM1248.21 -17.7 a8.5 8.5 0 1 0 17 0 a8.5 8.5 0 1 0 -17 0zM1321.83 449.8 a8.5 8.5 0 1 0 17 0 a8.5 8.5 0 1 0 -17 0zM1395.44 492.3 a8.5 8.5 0 1 0 17 0 a8.5 8.5 0 1 0 -17 0zM1395.44 577.3 a8.5 8.5 0 1 0 17 0 a8.5 8.5 0 1 0 -17 0zM1321.83 619.8 a8.5 8.5 0 1 0 17 0 a8.5 8.5 0 1 0 -17 0zM1248.21 577.3 a8.5 8.5 0 1 0 17 0 a8.5 8.5 0 1 0 -17 0zM1248.21 492.3 a8.5 8.5 0 1 0 17 0 a8.5 8.5 0 1 0 -17 0zM1469.06 619.8 a8.5 8.5 0 1 0 17 0 a8.5 8.5 0 1 0 -17 0zM1469.06 704.8 a8.5 8.5 0 1 0 17 0 a8.5 8.5 0 1 0 -17 0zM1395.44 747.3 a8.5 8.5 0 1 0 17 0 a8.5 8.5 0 1 0 -17 0zM1321.83 704.8 a8.5 8.5 0 1 0 17 0 a8.5 8.5 0 1 0 -17 0zM1542.67 577.3 a8.5 8.5 0 1 0 17 0 a8.5 8.5 0 1 0 -17 0zM1616.28 619.8 a8.5 8.5 0 1 0 17 0 a8.5 8.5 0 1 0 -17 0zM1616.28 704.8 a8.5 8.5 0 1 0 17 0 a8.5 8.5 0 1 0 -17 0zM1542.67 747.3 a8.5 8.5 0 1 0 17 0 a8.5 8.5 0 1 0 -17 0zM1469.05 704.8 a8.5 8.5 0 1 0 17 0 a8.5 8.5 0 1 0 -17 0zM1469.05 619.8 a8.5 8.5 0 1 0 17 0 a8.5 8.5 0 1 0 -17 0zM1689.9 322.3 a8.5 8.5 0 1 0 17 0 a8.5 8.5 0 1 0 -17 0zM1763.51 364.8 a8.5 8.5 0 1 0 17 0 a8.5 8.5 0 1 0 -17 0zM1763.51 449.8 a8.5 8.5 0 1 0 17 0 a8.5 8.5 0 1 0 -17 0zM1689.9 492.3 a8.5 8.5 0 1 0 17 0 a8.5 8.5 0 1 0 -17 0zM1616.28 449.8 a8.5 8.5 0 1 0 17 0 a8.5 8.5 0 1 0 -17 0zM1616.28 364.8 a8.5 8.5 0 1 0 17 0 a8.5 8.5 0 1 0 -17 0zM1689.9 577.3 a8.5 8.5 0 1 0 17 0 a8.5 8.5 0 1 0 -17 0zM1763.51 619.8 a8.5 8.5 0 1 0 17 0 a8.5 8.5 0 1 0 -17 0zM1763.51 704.8 a8.5 8.5 0 1 0 17 0 a8.5 8.5 0 1 0 -17 0zM1689.9 747.3 a8.5 8.5 0 1 0 17 0 a8.5 8.5 0 1 0 -17 0zM1837.13 492.3 a8.5 8.5 0 1 0 17 0 a8.5 8.5 0 1 0 -17 0zM1837.13 577.3 a8.5 8.5 0 1 0 17 0 a8.5 8.5 0 1 0 -17 0zM1910.74 619.8 a8.5 8.5 0 1 0 17 0 a8.5 8.5 0 1 0 -17 0zM1910.74 704.8 a8.5 8.5 0 1 0 17 0 a8.5 8.5 0 1 0 -17 0zM1837.13 747.3 a8.5 8.5 0 1 0 17 0 a8.5 8.5 0 1 0 -17 0zM1910.74 -60.2 a8.5 8.5 0 1 0 17 0 a8.5 8.5 0 1 0 -17 0zM1984.35 -17.7 a8.5 8.5 0 1 0 17 0 a8.5 8.5 0 1 0 -17 0zM1984.35 67.3 a8.5 8.5 0 1 0 17 0 a8.5 8.5 0 1 0 -17 0zM1910.74 109.8 a8.5 8.5 0 1 0 17 0 a8.5 8.5 0 1 0 -17 0zM1837.13 67.3 a8.5 8.5 0 1 0 17 0 a8.5 8.5 0 1 0 -17 0zM1837.13 -17.7 a8.5 8.5 0 1 0 17 0 a8.5 8.5 0 1 0 -17 0zM1910.74 449.8 a8.5 8.5 0 1 0 17 0 a8.5 8.5 0 1 0 -17 0zM1984.35 492.3 a8.5 8.5 0 1 0 17 0 a8.5 8.5 0 1 0 -17 0zM1984.35 577.3 a8.5 8.5 0 1 0 17 0 a8.5 8.5 0 1 0 -17 0z" fill="rgba(6, 161, 216, 1)"></path></g><defs><mask id="SvgjsMask1006"><rect width="1920" height="1080" fill="#ffffff"></rect></mask></defs></svg>