<svg xmlns="http://www.w3.org/2000/svg" version="1.1" xmlns:xlink="http://www.w3.org/1999/xlink" xmlns:svgjs="http://svgjs.com/svgjs" width="1920" height="1080" preserveAspectRatio="none" viewBox="0 0 1920 1080"><g mask="url(&quot;#SvgjsMask1140&quot;)" fill="none"><rect width="1920" height="1080" x="0" y="0" fill="rgba(6, 161, 216, 1)"></rect><path d="M1952 1080L0 1080 L0 669.8Q71.64 645.44, 96 717.09Q188.51 649.6, 256 742.11Q275.73 665.84, 352 685.56Q407.58 645.14, 448 700.72Q508.37 601.09, 608 661.46Q687.18 644.64, 704 723.82Q796.9 656.73, 864 749.63Q895.3 620.93, 1024 652.24Q1112.98 581.22, 1184 670.2Q1326.6 652.8, 1344 795.39Q1382.56 737.95, 1440 776.51Q1506.74 683.25, 1600 749.98Q1614.92 668.9, 1696 683.83Q1734.88 626.72, 1792 665.6Q1904.21 617.81, 1952 730.02z" fill="rgba(67, 183, 224, 1)"></path><path d="M1952 1080L0 1080 L0 906.41Q-3.22 807.19, 96 803.98Q125.28 737.26, 192 766.54Q266.08 744.62, 288 818.69Q350.03 720.73, 448 782.76Q564.08 738.84, 608 854.92Q702.56 789.48, 768 884.05Q826.72 846.76, 864 905.48Q923.35 804.83, 1024 864.18Q1021.21 765.39, 1120 762.6Q1253.26 735.86, 1280 869.12Q1319.91 749.03, 1440 788.94Q1506.68 759.62, 1536 826.3Q1598.24 792.54, 1632 854.78Q1691.33 754.11, 1792 813.43Q1885.88 747.3, 1952 841.18z" fill="rgba(67, 183, 224, 1)"></path><path d="M1952 1080L0 1080 L0 921.78Q26.05 851.83, 96 877.88Q204.47 826.35, 256 934.82Q352.09 870.91, 416 967.01Q485.59 876.6, 576 946.19Q650.14 860.34, 736 934.48Q819.76 922.24, 832 1006Q898.52 912.52, 992 979.04Q1053.38 880.42, 1152 941.81Q1166.63 860.44, 1248 875.08Q1304.56 835.64, 1344 892.2Q1476.24 864.44, 1504 996.68Q1520.92 917.6, 1600 934.52Q1613.76 852.28, 1696 866.04Q1786.3 796.34, 1856 886.63Q1911.61 846.24, 1952 901.85z" fill="rgba(101, 196, 230, 1)"></path><path d="M2016 1080L0 1080 L0 1028.33Q108.13 976.46, 160 1084.6Q189.35 1017.95, 256 1047.3Q323.36 954.66, 416 1022.02Q520.29 966.31, 576 1070.6Q666.51 1001.11, 736 1091.62Q764.45 1024.07, 832 1052.51Q859.26 983.77, 928 1011.03Q1037.69 960.72, 1088 1070.41Q1157.66 1044.08, 1184 1113.74Q1195.53 1029.27, 1280 1040.8Q1305.23 970.03, 1376 995.26Q1412.64 935.9, 1472 972.54Q1548.97 953.51, 1568 1030.49Q1653.78 1020.27, 1664 1106.05Q1696.04 1042.09, 1760 1074.12Q1773.41 991.53, 1856 1004.95Q1945.56 934.51, 2016 1024.07z" fill="rgba(101, 196, 230, 1)"></path></g><defs><mask id="SvgjsMask1140"><rect width="1920" height="1080" fill="#ffffff"></rect></mask></defs></svg>