<svg xmlns="http://www.w3.org/2000/svg" version="1.1" xmlns:xlink="http://www.w3.org/1999/xlink" xmlns:svgjs="http://svgjs.com/svgjs" width="1920" height="1080" preserveAspectRatio="none" viewBox="0 0 1920 1080"><g mask="url(&quot;#SvgjsMask1005&quot;)" fill="none"><rect width="1920" height="1080" x="0" y="0" fill="rgba(255, 255, 255, 1)"></rect><path d="M1984 1080L0 1080 L0 940.22Q93.21 937.43, 96 1030.64Q189.96 964.61, 256 1058.57Q261.21 903.77, 416 908.98Q482.04 815.02, 576 881.06Q681.39 826.45, 736 931.85Q823.4 923.25, 832 1010.66Q877.64 896.3, 992 941.94Q1024.93 878.88, 1088 911.81Q1177.02 840.83, 1248 929.84Q1367.01 952.85, 1344 1071.85Q1446.29 1014.14, 1504 1116.43Q1598.79 1051.22, 1664 1146Q1687.29 1009.29, 1824 1032.58Q1898.9 947.48, 1984 1022.38z" fill="rgba(54, 69, 74, 1)"></path></g><defs><mask id="SvgjsMask1005"><rect width="1920" height="1080" fill="#ffffff"></rect></mask></defs></svg>